<svg width="15" height="29" viewBox="0 0 15 29" fill="none" xmlns="http://www.w3.org/2000/svg">
<path fill-rule="evenodd" clip-rule="evenodd" d="M11.9 4.8C12.8 4.8 13.7 4.8 14.6 4.8C14.7 4.8 14.8 4.8 15 4.8V0.2C14.5 0.2 14 0.1 13.5 0.1C12.6 0 11.7 0 10.8 0C9.4 0 8 0.4 6.9 1.2C5.6 2.1 4.9 3.5 4.6 5C4.5 5.7 4.4 6.4 4.4 7C4.4 8 4.4 9.1 4.4 10.1V10.5H0V15.7H4.4V28.7H9.8V15.7H14.2C14.4 14 14.6 12.3 14.9 10.5C14.5 10.5 14.2 10.5 13.9 10.5C12.7 10.5 9.8 10.5 9.8 10.5C9.8 10.5 9.8 7.9 9.8 6.8C9.8 5.3 10.7 4.9 11.9 4.8Z" fill="white"/>
</svg>
