<svg width="26" height="26" viewBox="0 0 26 26" fill="none" xmlns="http://www.w3.org/2000/svg">
<path d="M25.625 6.475C25.425 4.775 24.825 3.275 23.525 2.075C22.225 0.775 20.525 0.275 18.825 0.175C15.825 -0.0249999 8.62501 -0.125 6.02501 0.275C3.12501 0.775 1.225 2.475 0.425003 5.275C-0.174997 7.475 -0.0750031 17.575 0.324997 19.775C0.824997 22.775 2.52501 24.675 5.52501 25.375C7.52501 25.875 17.625 25.875 19.825 25.475C22.825 24.975 24.725 23.275 25.525 20.275C26.025 18.075 25.825 8.475 25.625 6.475ZM23.225 19.375C22.925 21.675 21.425 23.075 19.125 23.275C17.025 23.475 7.725 23.675 5.825 23.075C4.025 22.575 2.92498 21.275 2.62498 19.475C2.32498 17.675 2.22498 8.775 2.62498 6.475C2.92498 4.275 4.42499 2.875 6.72499 2.575C9.02499 2.275 17.225 2.275 19.425 2.675C21.725 2.975 23.025 4.475 23.325 6.775C23.525 8.775 23.625 17.075 23.225 19.375ZM12.925 6.275C9.225 6.275 6.325 9.275 6.325 12.875C6.325 16.575 9.325 19.475 12.925 19.475C16.525 19.475 19.525 16.475 19.525 12.875C19.525 9.275 16.525 6.275 12.925 6.275ZM12.825 17.175C10.425 17.175 8.52498 15.175 8.62498 12.875C8.62498 10.475 10.625 8.575 12.925 8.675C15.325 8.675 17.225 10.675 17.125 12.975C17.125 15.275 15.225 17.175 12.825 17.175ZM21.325 5.975C21.325 6.875 20.625 7.475 19.725 7.475C18.825 7.475 18.225 6.775 18.225 5.875C18.225 4.975 18.925 4.375 19.825 4.375C20.625 4.475 21.325 5.175 21.325 5.975Z" fill="white"/>
</svg>
