<svg width="174" height="68" viewBox="0 0 174 68" fill="none" xmlns="http://www.w3.org/2000/svg">
<path d="M27.2792 34.8739C26.8795 36.6632 26.7796 37.9554 26.7796 38.7507C26.7796 40.1423 26.9795 41.2357 26.9795 41.5339C27.1793 42.528 27.8788 44.2178 29.1778 46.0071C30.0771 45.2119 30.9764 44.2178 31.8757 43.1244C32.6751 42.1304 33.3746 41.2357 33.8742 40.3411C33.3746 39.1483 32.7751 38.3531 32.2754 37.7566C30.8765 36.1662 29.4776 35.4704 29.0779 35.371C28.3784 35.1722 27.7789 34.9733 27.2792 34.8739ZM12.6903 22.7468C12.8902 23.045 13.2899 23.542 13.6896 24.1384C13.6896 24.1384 14.1892 24.8342 14.6888 25.4307C17.087 28.4127 20.3845 30.0032 20.3845 30.0032C21.2838 30.5002 22.5828 31.0966 24.2815 31.693C24.8811 30.1026 25.4806 28.8104 25.8803 28.0151C26.28 27.3193 26.5798 26.7229 26.6797 26.5241C27.0794 25.8283 27.3792 25.2319 27.6789 24.8342C25.7804 24.4366 24.2815 24.2378 23.1824 24.1384C22.283 24.039 21.9833 24.039 18.7857 23.6414C17.1869 23.4426 16.7872 23.4426 16.5874 23.4426C14.9886 23.045 13.5897 22.8462 12.6903 22.7468ZM45.7652 26.7229C45.2656 25.3313 44.8659 24.2378 44.4662 23.4426C43.5669 21.5539 42.6675 19.6653 40.6691 17.9754C40.3693 17.6772 40.0695 17.4784 39.8697 17.2796C39.5699 17.379 39.2701 17.6772 38.7705 17.876C38.2709 18.1742 37.2716 18.8701 35.3731 20.7587C34.7735 21.3551 34.0741 22.1504 33.1748 23.1444C33.4745 23.2438 33.9742 23.4426 34.4738 23.7408C35.3731 24.2378 37.3716 25.2319 38.7705 26.9217C40.5691 28.9098 40.9688 31.3948 41.0688 32.7865C41.3685 32.3889 41.9681 31.8919 42.4677 31.0966C43.0672 30.3014 43.4669 29.705 44.2663 28.711C44.666 28.3133 45.1656 27.6175 45.7652 26.7229ZM39.47 34.1781C39.37 33.0847 39.0703 30.5996 37.2716 28.4127C36.2724 27.2199 35.1732 26.5241 34.7735 26.2259C33.6744 25.5301 32.7751 25.2319 32.0756 25.033C31.2762 25.9277 30.277 27.1205 29.4776 28.711C28.6782 30.1026 28.1786 31.3948 27.8788 32.4883C28.3784 32.5877 29.0779 32.8859 29.8773 33.1841C30.3769 33.3829 32.1755 34.2775 33.9742 36.1662C34.4738 36.6632 35.1732 37.4584 35.8727 38.5519C36.3723 37.9554 36.9719 37.359 37.5714 36.6632C38.171 35.868 38.8704 34.9733 39.47 34.1781ZM55.3579 6.74289C55.3579 6.24587 55.258 5.84826 55.258 5.55005C54.8583 5.94767 54.3586 6.44468 53.7591 7.0411C52.7599 7.93573 51.7606 8.83035 49.8621 10.222C48.663 11.1166 47.7637 11.713 44.666 13.8999C44.5661 13.9993 43.0672 14.9933 41.5684 15.9874C41.7682 16.1862 42.068 16.4844 42.4677 16.7826C42.8674 17.1802 43.8666 18.2736 45.2656 20.5599C45.8651 21.6533 46.6645 23.2438 47.4639 25.2319C48.0634 24.536 48.7629 23.542 49.5623 22.4486C51.3609 19.8641 52.3602 17.7766 52.7599 16.9814C52.8598 16.882 54.2587 13.8005 55.158 10.5202C55.158 9.42677 55.4578 8.23394 55.3579 6.74289ZM26.9795 48.8898C27.1793 48.4922 27.3792 48.1939 27.6789 47.7963C26.8795 47.1005 26.0802 46.0071 25.2808 44.6154C24.0817 42.4286 23.8818 40.3411 23.682 38.2536C23.4821 36.6632 23.4821 35.2716 23.5821 34.0787C22.6827 33.5817 21.9833 33.1841 21.4837 32.8859C21.1839 32.6871 20.7842 32.5877 20.2846 32.2895C19.9848 32.0907 19.4852 31.8919 18.9856 31.5936C17.087 30.5002 15.4882 28.8104 15.4882 28.8104C14.5889 27.9157 13.6896 26.9217 12.6903 25.7289C11.9909 24.8342 11.3913 24.039 10.8917 23.2438C11.1915 27.0211 11.791 30.1026 12.2906 32.2895C12.9901 35.0728 13.4897 36.4644 13.6896 36.9614C14.2891 38.4525 15.2884 40.8381 17.3868 43.3232C17.7865 43.8202 18.1862 44.2178 18.5859 44.516C18.6858 44.6154 19.685 45.6095 20.984 46.5041C22.6827 47.7963 24.6812 48.691 25.7804 49.188C26.28 49.4862 26.7796 49.2874 26.9795 48.8898ZM57.4563 8.03513C57.2564 9.82438 56.9567 11.216 56.7568 12.2101C56.457 13.2041 56.1573 14.1981 56.0573 14.4963C55.7576 15.2916 55.5577 15.9874 55.4578 16.0868C55.158 16.9814 54.7583 17.7766 54.0589 19.1683C52.9597 21.2557 52.0604 22.8462 51.1611 24.1384C50.9612 24.4366 50.2618 25.5301 49.1626 27.2199C47.1641 30.1026 45.4654 32.1901 43.7667 34.3769C42.068 36.5638 40.9688 37.856 40.1694 38.6513C39.8697 38.9495 39.5699 39.3471 38.9703 39.8441C37.8712 41.0369 37.0718 42.1304 36.4723 42.8262C40.1694 42.031 43.0672 40.9375 45.1656 40.0429C48.3632 38.6513 51.4608 37.359 54.4586 34.3769C56.7568 32.0907 57.7561 30.4008 57.9559 29.9038C59.5547 26.9217 60.1542 24.9336 60.454 23.6414C60.6539 22.7468 60.8537 21.5539 60.9536 19.8641C60.9536 18.0748 60.7538 16.6832 60.5539 15.6892C60.1542 13.6017 59.4548 12.0113 58.7553 10.4208C58.2557 9.52617 57.7561 8.63155 57.4563 8.03513ZM2.99772 22.548C2.99772 26.5241 3.29749 30.5002 4.19681 34.3769C4.5965 36.0668 5.09612 37.359 5.29597 37.9554C6.79483 42.2298 8.89323 45.3113 8.89323 45.3113C9.79255 46.6035 10.6919 47.9951 12.3906 49.4862C14.3891 51.176 16.1877 51.9713 18.4859 53.0647C19.8849 53.6611 21.8834 54.4563 24.2815 55.0528C24.3814 54.5557 24.5813 54.0587 24.7811 53.5617C25.0809 52.6671 25.4806 51.8719 25.8803 51.176C24.3814 50.679 22.1831 49.7844 19.8849 48.3928C18.386 47.3987 15.9878 46.0071 14.0893 43.4226C11.791 40.3411 11.0916 37.2596 10.3921 33.8799C9.69263 30.699 9.5927 28.0151 8.89323 24.4366C8.39361 22.051 8.19377 20.9575 8.09384 20.7587C7.89399 20.1623 7.79407 19.6653 7.69415 19.0689C7.4943 18.1742 8.09384 17.6772 8.99316 17.9754C9.39285 18.0748 9.5927 18.2736 9.79255 18.5718C10.1922 18.9695 10.5919 19.3671 10.9916 19.7647C11.5912 20.3611 12.2906 20.6593 13.4897 21.0569C13.6896 21.1563 14.3891 21.3551 15.9878 21.6533C17.5866 21.9516 18.7857 22.051 19.1854 22.1504C21.3837 22.3492 22.383 22.3492 24.2815 22.4486C25.3807 22.548 26.9795 22.6474 29.0779 22.9456C29.2777 22.7468 29.4776 22.4486 29.7773 22.1504C31.1763 20.6593 32.5752 19.1683 34.3738 17.5778C34.6736 17.2796 35.2732 16.7826 35.8727 16.2856C35.5729 16.1862 35.1732 15.9874 34.5737 15.888C34.0741 15.7886 33.6744 15.7886 33.5745 15.7886C31.6759 15.5898 29.8773 15.391 27.9787 15.2916C23.9818 14.9933 24.1816 15.0927 22.6827 14.9933C20.2846 14.7945 19.0855 14.6951 18.0862 14.5957C17.2868 14.4963 14.7887 14.1981 11.6911 13.2041C9.49278 12.2101 8.89323 12.0113 7.99392 11.713C6.49506 11.1166 5.19605 10.4208 3.69719 9.82438C3.49734 9.62558 3.39742 9.62558 3.19757 9.62558C3.09764 9.72498 3.09764 10.0232 3.09764 10.1226C2.99772 11.713 3.09764 12.5083 3.09764 12.8065C3.09764 13.6017 3.09764 14.9933 3.09764 18.9695C3.09764 21.1563 2.99772 21.1563 2.99772 22.548ZM63.6516 20.4605C63.6516 25.6295 61.3533 29.705 60.6539 30.8978C57.7561 35.7686 53.6592 38.1542 51.7606 39.2477C48.7629 41.0369 44.8659 42.528 42.7675 43.2238C41.1687 43.8202 39.8697 44.3172 37.7713 45.2119C34.174 46.9017 32.6751 48.194 32.0756 48.691C30.4768 50.0826 29.5775 51.3748 29.2777 51.8719C27.7789 54.1581 27.2792 56.1462 27.1793 56.6432C26.9795 57.9354 26.6797 59.4265 26.9795 61.2157C27.1793 62.1104 27.3792 63.1044 28.0786 63.999C28.978 65.0925 30.4768 65.7883 31.8757 65.7883C34.9734 65.8877 37.7713 62.508 38.071 59.5259C38.171 58.9295 38.2709 57.7366 37.6713 56.4444C36.772 54.7545 34.5737 53.0647 34.6736 52.4683C34.7735 52.0707 35.0733 51.9713 35.3731 51.8719C35.7728 51.7725 38.7705 51.6731 40.8689 54.0587C42.7675 56.2456 42.4677 58.9295 42.3678 59.6253C42.068 61.7128 40.9688 63.1044 40.2694 63.999C39.5699 64.8937 37.8712 66.8817 34.8735 67.6769C34.0741 67.8757 31.1763 68.5716 28.2785 66.9811C27.9787 66.8817 25.2808 65.2913 24.2815 62.3092C23.5821 60.2217 23.8818 57.9354 23.9818 57.1402C23.9818 56.9414 23.9818 56.842 24.0817 56.7426C23.3822 56.5438 22.4829 56.2456 21.6835 55.9474C20.2846 55.4504 19.9848 55.351 19.5851 55.2516C16.7872 54.1581 14.5889 53.0647 11.5912 51.0766C5.69567 46.7029 2.59802 39.7447 0.899316 32.7865C-0.799392 25.6295 0.49962 18.1742 0.299772 10.9178C0.299772 9.72498 0 8.53214 0 7.33931C0 6.84229 0 6.34528 0.49962 6.14647C0.99924 5.94767 1.49886 5.94767 1.99848 6.24587C2.59802 6.64349 3.19757 7.0411 3.79711 7.43871C5.59574 8.63155 9.69263 10.4208 10.7918 10.8184C12.7903 11.5142 14.2891 11.713 15.788 12.0113C20.8841 12.9059 26.3799 12.6077 32.5752 13.4029C33.4745 13.5023 34.4738 13.5023 35.3731 13.7011C35.5729 13.7011 35.8727 13.8005 36.2724 13.8999C36.8719 14.0987 37.3716 14.2975 37.6713 14.3969C38.171 14.0987 38.8704 13.7011 39.6698 13.2041C41.4684 12.1107 42.7675 11.4148 43.2671 11.216C46.1649 9.62558 48.5631 7.83632 49.4624 7.1405C49.4624 7.1405 54.2587 3.46259 54.8583 0.679306C54.8583 0.679306 54.8583 0.679306 54.8583 0.579903C55.0581 -0.016515 55.4578 -0.215321 55.8575 0.281694C56.2572 0.679306 56.557 1.07692 56.7568 1.37513C57.0566 1.77274 57.3564 2.26975 57.6561 2.76677C58.1558 3.6614 58.5555 4.35722 58.9551 5.35125C61.1535 9.82438 60.9536 9.42677 61.6531 11.1166C61.9529 11.9118 62.5524 13.4029 62.9521 15.2916C63.152 15.9874 63.6516 18.1742 63.6516 20.4605Z" fill="#40CA68"/>
<path d="M112.514 59.4265H106.219C105.62 59.4265 105.62 60.2217 106.219 60.2217H108.917V66.5835C108.917 66.8817 109.117 66.9811 109.317 66.9811C109.517 66.9811 109.816 66.8817 109.816 66.5835V60.2217H112.514C113.014 60.2217 113.014 59.4265 112.514 59.4265Z" fill="#40CA68"/>
<path d="M114.813 63.6014V60.2217H117.211C118.61 60.2217 119.409 61.017 119.409 62.011C119.409 62.9056 118.71 63.6014 117.211 63.6014H114.813ZM114.813 64.3967H117.111L119.409 66.8817C119.509 66.9811 119.609 67.0805 119.709 67.0805C120.009 67.0805 120.308 66.6829 120.009 66.3847L118.21 64.3967C119.709 64.0985 120.308 63.3032 120.308 62.011C120.308 60.6193 119.209 59.4265 117.111 59.4265H114.213C113.913 59.4265 113.813 59.6253 113.813 59.8241V66.5835C113.813 66.8817 114.013 66.9811 114.213 66.9811C114.413 66.9811 114.613 66.8817 114.613 66.5835V64.3967H114.813Z" fill="#40CA68"/>
<path d="M122.707 66.186V63.6015H127.203C127.703 63.6015 127.703 62.8063 127.203 62.8063H122.707V60.1224H127.503C128.003 60.1224 128.003 59.3271 127.503 59.3271H122.407C122.107 59.3271 121.807 59.526 121.807 59.8242V66.3848C121.807 66.683 122.007 66.8818 122.407 66.8818H127.503C128.103 66.8818 128.003 66.0865 127.503 66.0865H122.707V66.186Z" fill="#40CA68"/>
<path d="M130.501 66.186V63.6015H134.997C135.497 63.6015 135.497 62.8063 134.997 62.8063H130.501V60.1224H135.297C135.797 60.1224 135.797 59.3271 135.297 59.3271H130.201C129.901 59.3271 129.601 59.526 129.601 59.8242V66.3848C129.601 66.683 129.801 66.8818 130.201 66.8818H135.297C135.897 66.8818 135.797 66.0865 135.297 66.0865H130.501V66.186Z" fill="#40CA68"/>
<path d="M95.7272 47.3987C93.2291 47.3987 91.5304 45.3113 91.5304 42.2298C91.5304 39.2477 93.329 37.0608 96.027 37.0608C97.7257 37.0608 99.5243 37.9555 100.324 39.4465V45.0131C99.6242 46.6035 97.6258 47.3987 95.7272 47.3987ZM102.122 34.1781C101.123 34.1781 100.524 34.6752 100.324 35.4704C98.9248 34.3769 97.1261 33.8799 95.8271 33.8799C91.1307 33.8799 88.0331 37.2596 88.0331 42.2298C88.0331 47.2993 90.8309 50.679 95.4274 50.679C97.0262 50.679 98.9248 50.182 100.424 48.9892C100.524 49.7844 101.123 50.2814 102.222 50.2814C103.321 50.2814 104.021 49.5856 104.021 48.5916V35.868C103.921 34.874 103.222 34.1781 102.122 34.1781ZM172.269 34.1781C171.47 34.1781 170.87 34.5758 170.57 35.2716L165.674 44.8143L160.778 35.2716C160.478 34.5758 159.778 34.1781 159.079 34.1781C157.98 34.1781 156.881 35.371 157.38 36.6632L163.676 48.691L161.277 53.4623C160.678 54.7546 161.677 55.9474 162.776 55.9474C163.476 55.9474 164.175 55.4504 164.575 54.6552L173.868 36.5638C174.367 35.371 173.368 34.1781 172.269 34.1781ZM154.383 48.691V31.4943C154.383 30.5996 153.583 29.9038 152.584 29.9038C151.485 29.9038 150.785 30.5996 150.785 31.4943V48.7904C150.785 49.685 151.485 50.3808 152.584 50.3808C153.583 50.2814 154.383 49.5856 154.383 48.691ZM141.992 35.7686V48.7904C141.992 49.7844 142.991 50.3808 143.791 50.3808C144.69 50.3808 145.589 49.8838 145.589 48.7904V35.7686C145.589 34.7746 144.69 34.2775 143.791 34.2775C142.891 34.1781 141.992 34.7746 141.992 35.7686ZM145.589 31.8919V31.4943C145.589 30.4008 144.59 29.9038 143.791 29.9038C142.791 29.9038 141.992 30.4008 141.992 31.4943V31.8919C141.992 32.9853 142.891 33.4823 143.791 33.4823C144.69 33.4823 145.589 32.8859 145.589 31.8919ZM130.201 33.8799C128.302 33.8799 125.604 34.4763 123.706 36.862C122.607 34.9734 120.608 33.8799 117.91 33.8799C116.312 33.8799 114.413 34.2775 112.714 35.868V35.7686C112.714 34.874 112.015 34.1781 110.916 34.1781C109.916 34.1781 109.117 34.874 109.117 35.7686V48.691C109.117 49.7844 110.016 50.2814 110.916 50.2814C111.815 50.2814 112.714 49.7844 112.714 48.691V42.4286C112.714 38.7507 115.812 37.0608 117.411 37.0608C120.109 37.0608 121.308 38.8501 121.308 41.534V48.691C121.308 49.685 122.107 50.3808 123.106 50.3808C124.206 50.3808 124.905 49.685 124.905 48.691V42.528C124.905 39.0489 127.703 37.1602 129.701 37.1602C132.399 37.1602 133.598 38.9495 133.598 41.6334V48.7904C133.598 49.7844 134.298 50.4802 135.397 50.4802C136.596 50.4802 137.196 49.7844 137.196 48.7904V41.6334C137.196 37.0608 134.598 33.8799 130.201 33.8799ZM73.2443 33.2835H83.9362C85.0353 33.2835 85.6349 32.4883 85.6349 31.7925C85.6349 30.9972 85.1353 30.202 83.9362 30.202H71.6455C70.5464 30.202 69.5471 31.0966 69.5471 32.0907V48.691C69.5471 49.7844 70.4464 50.3808 71.3458 50.3808C72.2451 50.3808 73.1444 49.7844 73.1444 48.691V42.6274H83.3366C84.4358 42.6274 85.0353 41.9316 85.0353 41.1363C85.0353 40.3411 84.5357 39.5459 83.3366 39.5459H73.2443V33.2835Z" fill="white"/>
</svg>
