<svg width="28" height="23" viewBox="0 0 28 23" fill="none" xmlns="http://www.w3.org/2000/svg">
<path fill-rule="evenodd" clip-rule="evenodd" d="M8.59999 17.6837C5.59999 17.5837 3.8 15.4837 3.3 13.6837C4.1 13.8837 4.9 13.7837 5.8 13.5837C5.8 13.5837 5.79999 13.5837 5.89999 13.5837C4.29999 13.1837 3 12.3837 2.2 10.9837C1.6 10.0837 1.39999 9.08373 1.39999 7.98373C2.19999 8.38373 3 8.68373 4 8.68373C2.8 7.78373 1.99999 6.68373 1.59999 5.18373C1.29999 3.68373 1.5 2.38373 2.2 0.983727C5.3 4.68373 9.2 6.68373 14 6.98373C14 6.78373 13.9 6.58373 13.9 6.38373C13.7 5.08373 14 3.78373 14.7 2.68373C15.6 1.28373 16.9 0.383727 18.6 0.0837272C20.5 -0.216273 22.2 0.283727 23.6 1.68373C23.7 1.78373 23.8 1.78373 23.9 1.78373C25.1 1.48373 26.2 1.08373 27.2 0.483727H27.3C26.8 1.78373 26 2.88373 24.8 3.58373C25.9 3.48373 27 3.18373 28 2.68373C27.8 2.98373 27.6 3.28373 27.3 3.58373C26.7 4.38373 26 4.98373 25.2 5.58373C25.1 5.58373 25.1 5.68373 25.1 5.78373C25.1 6.68373 25.1 7.48373 25 8.28373C24.8 10.0837 24.3 11.7837 23.5 13.3837C22.7 15.0837 21.7 16.5837 20.4 17.8837C18.2 20.1837 15.6 21.5837 12.5 22.2837C11.4 22.4837 10.4 22.5837 9.3 22.6837C6 22.7837 2.89999 21.9837 0.0999908 20.1837C0.0999908 20.1837 0 20.1837 0 20.0837C2 20.2837 3.9 20.0837 5.7 19.2837C6.8 18.8837 7.69999 18.3837 8.59999 17.6837Z" fill="white"/>
</svg>
